<?xml version="1.0" encoding="utf-8"?>
<!-- Generator: Adobe Illustrator 24.0.3, SVG Export Plug-In . SVG Version: 6.00 Build 0)  -->
<svg version="1.1"
	 id="svg921" inkscape:version="1.0.1 (3bc2e813f5, 2020-09-07)" sodipodi:docname="apply_low_pass_filter.svg" xmlns:cc="http://creativecommons.org/ns#" xmlns:dc="http://purl.org/dc/elements/1.1/" xmlns:inkscape="http://www.inkscape.org/namespaces/inkscape" xmlns:rdf="http://www.w3.org/1999/02/22-rdf-syntax-ns#" xmlns:sodipodi="http://sodipodi.sourceforge.net/DTD/sodipodi-0.dtd" xmlns:svg="http://www.w3.org/2000/svg"
	 xmlns="http://www.w3.org/2000/svg" xmlns:xlink="http://www.w3.org/1999/xlink" x="0px" y="0px" viewBox="0 0 24 24"
	 style="enable-background:new 0 0 24 24;" xml:space="preserve">
<style type="text/css">
	.st0{opacity:0.3;}
	.st1{fill:#6E97C4;}
	.st2{fill:#253E5B;}
	.st3{display:none;fill:#592525;}
	.st4{fill:#6D97C4;}
	.st5{fill:none;}
	.st6{fill:none;stroke:#FFF471;stroke-width:1.5;stroke-linecap:round;}
	.st7{opacity:0.46;fill:#3195D2;stroke:#FFF471;stroke-width:1.5;stroke-linecap:round;enable-background:new    ;}
</style>
<sodipodi:namedview  bordercolor="#666666" borderopacity="1" gridtolerance="10" guidetolerance="10" id="namedview923" inkscape:current-layer="layer2" inkscape:cx="7.7730903" inkscape:cy="15.544663" inkscape:document-rotation="0" inkscape:pageopacity="0" inkscape:pageshadow="2" inkscape:window-height="1027" inkscape:window-maximized="1" inkscape:window-width="1920" inkscape:window-x="-8" inkscape:window-y="1192" inkscape:zoom="17.5625" objecttolerance="10" pagecolor="#ffffff" showgrid="false">
	</sodipodi:namedview>
<g id="layer1" inkscape:groupmode="layer" inkscape:label="bg_raster">
	<g id="g5456" transform="matrix(1.2307692,0,0,1.2307692,4,-5.8461542)" class="st0">
		<rect id="rect6419" x="3.2" y="4.8" class="st1" width="6.5" height="6.5"/>
		<rect id="rect6419-6" x="9.7" y="4.8" class="st2" width="6.5" height="6.5"/>
		
			<rect id="rect6419-6-9" x="3.2" y="11.3" inkscape:transform-center-x="-3.2499991" inkscape:transform-center-y="-4.3333322" class="st3" width="6.5" height="6.5">
		</rect>
		<rect id="rect6419-0" x="9.7" y="11.3" class="st4" width="6.5" height="6.5"/>
		<rect id="rect6419-6-7" x="-3.3" y="4.8" class="st2" width="6.5" height="6.5"/>
		<rect id="rect6419-3" x="-3.3" y="11.3" class="st4" width="6.5" height="6.5"/>
		<rect id="rect6419-5" x="3.2" y="17.8" class="st4" width="6.5" height="6.5"/>
		<rect id="rect6419-6-6_2_" x="3.2" y="11.3" class="st2" width="6.5" height="6.5"/>
		<rect id="rect6419-6-6" x="-3.3" y="17.8" class="st2" width="6.5" height="6.5"/>
		<rect id="rect6419-6-6_1_" x="9.7" y="17.8" class="st2" width="6.5" height="6.5"/>
		<rect id="rect6554" x="-3.3" y="4.8" class="st5" width="19.5" height="19.5"/>
	</g>
</g>
<path class="st6" d="M19.3,9.2c1.4-2.3,2.8-3.9,3.8-4.9"/>
<path class="st6" d="M0.9,14.2C2.1,10.5,3,9.7,3.7,9.7"/>
<line class="st6" x1="3.7" y1="9.7" x2="19" y2="9.7"/>
<path class="st7" d="M19.3,9.2c-2.2,3.6-2.6,6.5-3.9,6.6c-1.4,0.1-1.8-3.1-3.9-3.4c-1.8-0.2-2.5,1.8-4.1,1.5C5.3,13.5,5,9.8,3.7,9.7
	 M3.8,9.7h15.4"/>
</svg>
