<?xml version="1.0" encoding="utf-8"?>
<!-- Generator: Adobe Illustrator 24.0.3, SVG Export Plug-In . SVG Version: 6.00 Build 0)  -->
<svg version="1.1"
	 id="svg921" inkscape:version="1.0.1 (3bc2e813f5, 2020-09-07)" sodipodi:docname="apply_low_pass_filter.svg" xmlns:cc="http://creativecommons.org/ns#" xmlns:dc="http://purl.org/dc/elements/1.1/" xmlns:inkscape="http://www.inkscape.org/namespaces/inkscape" xmlns:rdf="http://www.w3.org/1999/02/22-rdf-syntax-ns#" xmlns:sodipodi="http://sodipodi.sourceforge.net/DTD/sodipodi-0.dtd" xmlns:svg="http://www.w3.org/2000/svg"
	 xmlns="http://www.w3.org/2000/svg" xmlns:xlink="http://www.w3.org/1999/xlink" x="0px" y="0px" viewBox="0 0 24 24"
	 style="enable-background:new 0 0 24 24;" xml:space="preserve">
<style type="text/css">
	.st0{opacity:0.3;}
	.st1{fill:#6E97C4;}
	.st2{fill:#253E5B;}
	.st3{fill:#592525;}
	.st4{fill:#6D97C4;}
	.st5{fill:none;}
	.st6{fill:none;stroke:#FFF471;stroke-width:1.5;stroke-linecap:round;enable-background:new    ;}
	.st7{enable-background:new    ;}
	.st8{fill:#505050;stroke:#505050;stroke-width:0.7773;stroke-linecap:round;stroke-linejoin:round;stroke-miterlimit:4.1457;}
	.st9{fill:#FCE94F;stroke:#8B7617;stroke-width:0.7773;stroke-linecap:round;stroke-linejoin:round;stroke-miterlimit:4.1457;}
	
		.st10{opacity:0.5;fill:none;stroke:#FCFFFF;stroke-width:2.0729;stroke-linejoin:round;stroke-miterlimit:4.1457;enable-background:new    ;}
	
		.st11{opacity:0.25;fill-opacity:0.5882;stroke:#000000;stroke-width:2.0729;stroke-linejoin:round;stroke-miterlimit:4.1457;enable-background:new    ;}
	
		.st12{opacity:0.5;fill:#FCE94F;stroke:#8B7617;stroke-width:0.7773;stroke-linecap:round;stroke-linejoin:round;stroke-miterlimit:4.1457;enable-background:new    ;}
	.st13{fill:#969696;stroke:#969696;stroke-width:0.5182;stroke-linecap:square;stroke-linejoin:round;stroke-miterlimit:4.1457;}
	.st14{fill:#E6E6E6;stroke:#969696;stroke-width:0.5182;stroke-linecap:round;stroke-linejoin:round;stroke-miterlimit:4.1457;}
	.st15{fill:#E6E6E6;stroke:#E6E6E6;stroke-width:0.5182;stroke-linecap:square;stroke-linejoin:round;stroke-miterlimit:4.1457;}
</style>
<sodipodi:namedview  bordercolor="#666666" borderopacity="1" gridtolerance="10" guidetolerance="10" id="namedview923" inkscape:current-layer="layer2" inkscape:cx="7.7730903" inkscape:cy="15.544663" inkscape:document-rotation="0" inkscape:pageopacity="0" inkscape:pageshadow="2" inkscape:window-height="1027" inkscape:window-maximized="1" inkscape:window-width="1920" inkscape:window-x="-8" inkscape:window-y="1192" inkscape:zoom="17.5625" objecttolerance="10" pagecolor="#ffffff" showgrid="false">
	</sodipodi:namedview>
<g id="layer1" inkscape:groupmode="layer" inkscape:label="bg_raster">
	<g id="g5456" transform="matrix(1.2307692,0,0,1.2307692,4,-5.8461542)" class="st0">
		<rect id="rect6419" x="3.2" y="4.8" class="st1" width="6.5" height="6.5"/>
		<rect id="rect6419-6" x="9.7" y="4.8" class="st2" width="6.5" height="6.5"/>
		
			<rect id="rect6419-6-9" x="3.2" y="11.3" inkscape:transform-center-x="-3.2499991" inkscape:transform-center-y="-4.3333322" class="st3" width="6.5" height="6.5">
		</rect>
		<rect id="rect6419-0" x="9.7" y="11.3" class="st4" width="6.5" height="6.5"/>
		<rect id="rect6419-6-7" x="-3.3" y="4.8" class="st2" width="6.5" height="6.5"/>
		<rect id="rect6419-3" x="-3.3" y="11.3" class="st4" width="6.5" height="6.5"/>
		<rect id="rect6419-5" x="3.2" y="17.8" class="st4" width="6.5" height="6.5"/>
		<rect id="rect6419-6-6" x="-3.3" y="17.8" class="st2" width="6.5" height="6.5"/>
		<rect id="rect6419-6-6_1_" x="9.7" y="17.8" class="st2" width="6.5" height="6.5"/>
		<rect id="rect6554" x="-3.3" y="4.8" class="st5" width="19.5" height="19.5"/>
	</g>
</g>
<path class="st6" d="M23.1,3.9c-1,1-2.4,2.6-3.8,4.9c-2.2,3.6-2.6,6.5-3.9,6.6c-1.4,0.1-1.8-3.1-3.9-3.4c-1.8-0.2-2.5,1.8-4.1,1.5
	C5.3,13.1,5,9.4,3.7,9.3c-0.7,0-1.6,0.8-2.8,4.5"/>
<g id="g4839" transform="matrix(0.74431575,0.72124349,-0.72124349,0.74431575,11.963031,3.6303056)" class="st7">
	<path id="path4701" inkscape:connector-curvature="0" sodipodi:nodetypes="cccc" class="st8" d="M3.5,10.8l4.3,0l-2.2,5
		C5.6,15.8,3.5,10.8,3.5,10.8z"/>
	<path id="path4699" inkscape:connector-curvature="0" sodipodi:nodetypes="ccccc" class="st9" d="M3.5-1.4l4.3,0l0,12.2l-4.3,0
		L3.5-1.4"/>
	<path id="path2893" inkscape:connector-curvature="0" sodipodi:nodetypes="cc" class="st10" d="M5.3-0.6l0,10.8"/>
	<path id="path2895" inkscape:connector-curvature="0" sodipodi:nodetypes="cc" class="st11" d="M6.7-0.6l0,10.8"/>
	<path id="path4759" inkscape:connector-curvature="0" class="st12" d="M6.4-0.6l0,11.5"/>
	<path id="path4746" inkscape:connector-curvature="0" sodipodi:nodetypes="cccc" class="st13" d="M5.9,14.6L7.3,11l-1.4,0
		C5.9,11,5.9,14.6,5.9,14.6z"/>
	<path id="path4781" inkscape:connector-curvature="0" class="st12" d="M4.6-0.6l0,11.5"/>
	
		<rect id="rect4748" x="4.9" y="-3.7" transform="matrix(2.708885e-06 1 -1 2.708885e-06 4.2814 -7.0285)" class="st14" width="1.6" height="4.6"/>
	<path id="path4529" inkscape:connector-curvature="0" sodipodi:nodetypes="cccc" class="st15" d="M5.4,14.7L4,11h1.4L5.4,14.7z"/>
</g>
</svg>
